<?xml version="1.0" encoding="utf-8"?>
<svg xmlns="http://www.w3.org/2000/svg" data-name="Layer 1" width="520.52033" height="575.72373" viewBox="0 0 520.52033 575.72373">
  <path d="M 207.249 425.57 L 152.206 424.348 L 173.383 335.504 L 142.409 250.394 L 142.488 250.092 L 165.383 162.477 L 139.229 82.72 L 189.788 62.035 L 219.604 165.417 L 219.53 165.688 L 196.793 248.904 L 227.785 335.332 L 227.72 335.617 L 207.249 425.57 Z M 154.725 422.403 L 205.661 423.535 L 225.705 335.457 L 194.697 248.985 L 217.527 165.432 L 188.483 64.729 L 141.709 83.866 L 167.467 162.413 L 167.393 162.698 L 144.501 250.296 L 175.468 335.385 L 175.398 335.676 L 154.725 422.403 Z" style="fill: rgb(242, 242, 242);"/>
  <path d="M 191.745 75.945 C 191.744 85.037 187.018 93.475 179.265 98.225 C 178.693 98.589 178.102 98.923 177.495 99.225 C 175.321 100.348 172.997 101.157 170.595 101.625 C 169.925 101.755 169.245 101.855 168.555 101.925 C 167.57 102.046 166.578 102.106 165.585 102.105 C 162.742 102.11 159.918 101.647 157.225 100.735 L 157.225 100.725 C 156.358 100.446 155.51 100.112 154.685 99.725 C 145.826 95.675 139.956 87.033 139.455 77.305 C 139.435 76.855 139.425 76.395 139.425 75.945 C 139.425 75.735 139.425 75.515 139.435 75.305 C 139.927 55.174 162.027 43.124 179.215 53.616 C 186.998 58.366 191.746 66.827 191.745 75.945 Z" style="fill: rgb(252, 163, 17);"/>
  <path d="M 218.745 162.445 C 218.745 162.775 218.735 163.095 218.715 163.425 C 218.7 164.094 218.65 164.761 218.565 165.425 C 217.324 176.188 209.585 185.075 199.095 187.785 C 198.295 187.985 197.495 188.155 196.675 188.285 C 195.322 188.498 193.955 188.605 192.585 188.605 C 191.334 188.606 190.084 188.516 188.845 188.335 C 188.165 188.245 187.485 188.115 186.825 187.965 C 183.546 187.234 180.441 185.868 177.685 183.945 C 177.115 183.555 176.555 183.135 176.025 182.695 C 162.707 171.81 163.347 151.252 177.315 141.215 L 177.315 141.205 C 177.875 140.792 178.456 140.408 179.055 140.055 C 182.018 138.252 185.313 137.065 188.745 136.565 C 189.425 136.465 190.115 136.395 190.805 136.355 C 191.395 136.305 191.985 136.285 192.585 136.285 C 194.726 136.283 196.859 136.545 198.935 137.065 C 199.741 137.263 200.535 137.503 201.315 137.785 C 211.766 141.477 218.752 151.361 218.745 162.445 Z" style="fill: rgb(252, 163, 17);"/>
  <path d="M 195.745 248.945 C 195.744 257.286 191.761 265.126 185.025 270.045 C 184.486 270.451 183.925 270.828 183.345 271.175 C 181.35 272.426 179.189 273.392 176.925 274.045 C 176.275 274.245 175.615 274.415 174.945 274.555 C 171.389 275.292 167.72 275.288 164.165 274.545 C 163.303 274.365 162.452 274.138 161.615 273.865 C 151.268 270.552 144.042 261.194 143.455 250.345 C 143.435 249.875 143.425 249.415 143.425 248.945 C 143.425 248.745 143.425 248.545 143.435 248.345 C 143.636 239.301 148.501 231.005 156.295 226.415 C 157.072 225.946 157.877 225.525 158.705 225.155 C 162.118 223.589 165.83 222.781 169.585 222.785 C 169.825 222.785 170.065 222.785 170.305 222.805 C 170.994 222.813 171.681 222.856 172.365 222.935 C 174.896 223.195 177.373 223.832 179.715 224.825 C 180.345 225.085 180.955 225.365 181.555 225.685 C 190.273 230.164 195.752 239.144 195.745 248.945 Z" style="fill: rgb(252, 163, 17);"/>
  <path d="M 226.745 335.395 L 226.745 335.445 C 226.745 336.105 226.715 336.755 226.655 337.395 C 225.843 348.33 218.292 357.595 207.745 360.595 L 207.745 360.605 C 206.995 360.825 206.234 361.005 205.465 361.145 C 203.857 361.451 202.223 361.605 200.585 361.605 C 199.546 361.607 198.507 361.544 197.475 361.415 C 196.805 361.345 196.135 361.235 195.475 361.105 C 192.004 360.42 188.709 359.032 185.795 357.025 C 185.201 356.624 184.627 356.193 184.075 355.735 C 172.062 345.964 171.123 327.952 182.055 316.985 L 182.055 316.975 C 182.565 316.465 183.095 315.975 183.645 315.515 C 186.202 313.33 189.16 311.665 192.355 310.615 C 192.995 310.395 193.635 310.205 194.295 310.045 C 196.353 309.537 198.465 309.281 200.585 309.285 C 200.965 309.285 201.345 309.295 201.725 309.315 C 202.505 309.345 203.285 309.415 204.045 309.515 L 204.045 309.525 L 204.055 309.525 C 217.031 311.248 226.729 322.306 226.745 335.395 Z" style="fill: rgb(252, 163, 17);"/>
  <path d="M 205.745 421.945 C 205.745 442.083 183.945 454.668 166.506 444.6 C 158.853 440.181 153.948 432.198 153.465 423.375 C 153.435 422.895 153.425 422.425 153.425 421.945 C 153.425 421.755 153.425 421.565 153.435 421.375 C 153.629 411.998 158.835 403.445 167.075 398.965 C 167.941 398.489 168.836 398.068 169.755 397.705 C 172.876 396.431 176.215 395.779 179.585 395.785 C 180.175 395.785 180.765 395.805 181.355 395.845 C 182.055 395.895 182.745 395.965 183.425 396.065 C 185.843 396.416 188.197 397.113 190.415 398.135 C 191.025 398.405 191.625 398.705 192.215 399.035 C 200.567 403.632 205.752 412.412 205.745 421.945 Z" style="fill: rgb(252, 163, 17);"/>
  <path d="M 187.945 190.245 C 187.875 190.405 187.795 190.555 187.715 190.705 L 176.345 213.155 C 175.505 214.825 174.735 216.515 174.035 218.245 L 171.885 218.245 C 172.67 216.2 173.561 214.197 174.555 212.245 L 185.715 190.245 L 187.945 190.245 Z" style="fill: rgb(242, 242, 242);"/>
  <path d="M 189.135 132.245 L 186.935 132.245 C 184.677 127.357 181.825 122.766 178.445 118.575 C 174.902 114.185 171.919 109.372 169.565 104.245 L 171.785 104.245 C 173.999 108.914 176.758 113.305 180.005 117.325 C 183.685 121.88 186.754 126.896 189.135 132.245 Z" style="fill: rgb(242, 242, 242);"/>
  <polygon points="192.465 306.245 190.245 306.245 176.725 278.245 178.955 278.245 192.465 306.245" style="fill: rgb(242, 242, 242);"/>
  <path d="M 194.305 364.245 L 196.455 364.245 C 196.305 364.635 196.155 365.015 195.995 365.405 L 184.995 392.245 L 182.835 392.245 L 194.145 364.645 C 194.195 364.515 194.255 364.375 194.305 364.245 Z" style="fill: rgb(242, 242, 242);"/>
  <path d="M 204.305 364.245 L 206.455 364.245 C 206.305 364.635 206.155 365.015 205.995 365.405 L 194.995 392.245 L 192.835 392.245 L 204.145 364.645 C 204.195 364.515 204.255 364.375 204.305 364.245 Z" style="fill: rgb(242, 242, 242);"/>
  <path d="M 197.945 190.245 C 197.865 190.395 197.795 190.555 197.715 190.705 L 186.345 213.155 C 185.495 214.825 184.725 216.522 184.035 218.245 L 181.875 218.245 C 182.667 216.201 183.562 214.199 184.555 212.245 L 195.715 190.245 L 197.945 190.245 Z" style="fill: rgb(242, 242, 242);"/>
  <path d="M 199.125 132.245 L 196.935 132.245 C 194.674 127.358 191.823 122.768 188.445 118.575 C 184.902 114.185 181.919 109.372 179.565 104.245 L 181.775 104.245 C 184 108.911 186.762 113.3 190.005 117.325 C 193.681 121.88 196.747 126.896 199.125 132.245 Z" style="fill: rgb(242, 242, 242);"/>
  <polygon points="202.465 306.245 200.245 306.245 186.735 278.245 188.955 278.245 202.465 306.245" style="fill: rgb(242, 242, 242);"/>
  <path d="M 181.305 364.245 L 183.455 364.245 C 183.305 364.635 183.155 365.015 182.995 365.405 L 171.995 392.245 L 169.835 392.245 L 181.145 364.645 C 181.195 364.515 181.255 364.375 181.305 364.245 Z" style="fill: rgb(242, 242, 242);"/>
  <path d="M 174.945 190.245 C 174.865 190.405 174.795 190.555 174.715 190.705 L 163.345 213.155 C 162.495 214.825 161.728 216.522 161.045 218.245 L 158.885 218.245 C 159.674 216.201 160.565 214.199 161.555 212.245 L 172.715 190.245 L 174.945 190.245 Z" style="fill: rgb(242, 242, 242);"/>
  <path d="M 176.135 132.245 L 173.945 132.245 C 171.683 127.357 168.828 122.766 165.445 118.575 C 161.904 114.184 158.921 109.37 156.565 104.245 L 158.775 104.245 C 160.998 108.911 163.76 113.301 167.005 117.325 C 170.68 121.883 173.749 126.898 176.135 132.245 Z" style="fill: rgb(242, 242, 242);"/>
  <polygon points="165.955 278.245 179.465 306.245 177.245 306.245 163.725 278.245 165.955 278.245" style="fill: rgb(242, 242, 242);"/>
  <rect x="431.426" y="200.095" width="102.43" height="2" transform="matrix(0.999896, -0.01444, 0.01444, 0.999896, -381.238567, -117.290149)" style="fill: rgb(252, 163, 17);"/>
  <rect x="450.426" y="546.097" width="102.43" height="2" transform="matrix(0.999896, -0.01444, 0.01444, 0.999896, -386.234234, -116.979602)" style="fill: rgb(252, 163, 17);"/>
  <path d="M 91.309 411.059 L 38.309 411.059 C 28.302 411.059 22.047 421.892 27.051 430.559 C 29.373 434.581 33.665 437.059 38.309 437.059 L 91.309 437.059 C 101.317 437.059 107.571 426.226 102.568 417.559 C 100.245 413.537 95.954 411.059 91.309 411.059 Z" style="fill: rgb(37, 176, 155);"/>
  <rect x="438.426" y="373.096" width="102.43" height="2" transform="matrix(0.999896, -0.01444, 0.01444, 0.999896, -383.736675, -117.170978)" style="fill: rgb(252, 163, 17);"/>
  <polygon points="309.94 166.552 194.472 165.073 194.501 163.073 309.969 164.552 309.94 166.552" style="fill: rgb(252, 163, 17);"/>
  <rect x="633.081" y="409.88" width="2" height="102.43" transform="matrix(0.014444, -0.999896, 0.999896, 0.014444, -214.508948, 964.16696)" style="fill: rgb(252, 163, 17);"/>
  <path d="M 313.038 325.848 L 260.038 325.848 C 250.031 325.848 243.776 336.681 248.78 345.348 C 251.102 349.37 255.394 351.848 260.038 351.848 L 313.038 351.848 C 323.046 351.848 329.3 341.015 324.297 332.348 C 321.974 328.326 317.683 325.848 313.038 325.848 Z" style="fill: rgb(37, 176, 155);"/>
  <path d="M 77.041 64.27 L 24.041 64.27 C 14.034 64.27 7.779 75.103 12.783 83.77 C 15.105 87.792 19.397 90.27 24.041 90.27 L 77.041 90.27 C 87.049 90.27 93.303 79.437 88.3 70.77 C 85.977 66.748 81.686 64.27 77.041 64.27 Z" style="fill: rgb(37, 176, 155);"/>
  <path d="M 102.969 237.27 L 49.969 237.27 C 39.962 237.27 33.707 248.103 38.711 256.77 C 41.033 260.792 45.325 263.27 49.969 263.27 L 102.969 263.27 C 112.977 263.27 119.231 252.437 114.228 243.77 C 111.905 239.748 107.614 237.27 102.969 237.27 Z" style="fill: rgb(37, 176, 155);"/>
  <path d="M 518.464 571.225 L 37.181 570.992 C 35.599 570.992 34.609 571.746 35.401 572.349 C 35.768 572.629 36.447 572.802 37.181 572.802 L 518.464 573.035 C 520.047 573.035 521.036 572.281 520.245 571.678 C 519.878 571.398 519.199 571.225 518.464 571.225 Z" style="fill: rgb(242, 242, 242);"/>
  <rect x="-374.1" y="552.46" width="21.188" height="27.834" transform="matrix(0.999945, -0.010501, -0.010501, -0.999945, 756.568741, 1101.383712)" fill="#f8a8ab" style=""/>
  <path d="M 363.424 538.887 C 359.913 538.587 342.337 537.257 341.453 541.107 C 340.649 544.639 341.836 548.33 342.003 548.836 C 343.69 564.894 344.317 565.072 344.7 565.175 C 345.299 565.344 347.045 564.547 349.878 562.805 L 350.055 562.692 L 350.095 562.496 C 350.144 562.243 351.4 556.35 357.353 557.259 C 361.434 557.877 362.757 558.739 363.179 559.16 C 362.835 559.31 362.404 559.573 362.1 560.022 C 361.659 560.678 361.58 561.521 361.875 562.533 C 362.64 565.203 364.935 569.147 365.033 569.307 L 365.298 569.756 L 388.642 554.71 L 403.06 550.775 C 404.149 550.476 405.022 549.736 405.464 548.742 C 406.072 547.356 405.698 545.745 404.522 544.733 C 401.903 542.484 396.704 538.634 391.241 538.156 C 389.79 538.025 387.867 537.978 385.709 537.978 C 376.695 537.978 363.533 538.868 363.435 538.887 L 363.424 538.887 Z" style="transform-box: fill-box; transform-origin: 50% 50%; fill: rgb(20, 20, 20);" transform="matrix(-0.999945, 0.010501, -0.010501, -0.999945, -0.000031, 0.000005)"/>
  <rect x="-432.79" y="552.46" width="21.188" height="27.834" transform="matrix(0.999945, -0.010501, -0.010501, -0.999945, 873.944281, 1100.151132)" fill="#f8a8ab" style=""/>
  <path d="M 420.32 538.29 C 416.809 537.99 399.233 536.66 398.349 540.51 C 397.545 544.042 398.732 547.733 398.899 548.239 C 400.585 564.297 401.213 564.475 401.596 564.578 C 402.194 564.747 403.94 563.95 406.774 562.208 L 406.95 562.095 L 406.991 561.899 C 407.039 561.646 408.295 555.753 414.249 556.662 C 418.33 557.28 419.653 558.142 420.075 558.563 C 419.731 558.713 419.3 558.976 418.996 559.425 C 418.555 560.081 418.476 560.924 418.77 561.936 C 419.536 564.606 421.831 568.55 421.928 568.71 L 422.193 569.159 L 445.538 554.113 L 459.956 550.178 C 461.045 549.879 461.917 549.139 462.359 548.145 C 462.967 546.759 462.594 545.148 461.418 544.136 C 458.799 541.887 453.6 538.037 448.137 537.559 C 446.685 537.428 444.763 537.381 442.605 537.381 C 433.591 537.381 420.428 538.271 420.33 538.29 L 420.32 538.29 Z" style="transform-box: fill-box; transform-origin: 50% 50%; fill: rgb(20, 20, 20);" transform="matrix(-0.999945, 0.010501, -0.010501, -0.999945, 0.000026, 0.000005)"/>
  <polygon points="402.058 112.822 434.914 102.825 434.914 146.614 405.104 146.614 402.058 112.822" fill="#f8a8ab" style="transform-box: fill-box; transform-origin: 50% 50%;" transform="matrix(-0.999945, 0.010501, -0.010501, -0.999945, -0.00006, 0.000005)"/>
  <circle cx="241.56" cy="44.8" r="32.35" fill="#f8a8ab" style="" transform="matrix(-0.893454, 0.009382, 0.009838, 0.93681, 634.385212, 40.397989)"/>
  <path d="M 404.2 61.056 L 408.875 56.231 L 417.336 68.827 C 417.336 68.827 428.134 68.354 428.134 75.17 C 428.134 81.983 438.042 82.18 438.042 82.18 C 438.042 82.18 452.06 103.011 423.019 97.525 C 423.019 97.525 402.879 109.262 392.856 99.228 C 392.856 99.228 362.136 86.069 370.932 63.153 L 385.536 39.53 L 388.849 44.875 C 388.849 44.875 386.848 67.319 404.211 61.066 L 404.2 61.056 Z" style="fill: rgb(20, 20, 20); transform-box: fill-box; transform-origin: 59.6899% 52.9965%;" transform="matrix(-0.995754, 0.092059, -0.092059, -0.995754, -0.000011, 0.000003)"/>
  <polygon points="478.545 536.665 367.978 536.665 395.035 278.382 426.404 280.256 427.951 466.26 447.693 384.631 453.47 281.661 482.056 280.256 485.376 397.392 478.545 536.665" style="fill: rgb(20, 20, 20); transform-box: fill-box; transform-origin: 50% 50%;" transform="matrix(-0.999945, 0.010501, -0.010501, -0.999945, -0.000027, -0.000056)"/>
  <polygon points="413.02 295.433 450.459 287.001 482.467 158.942 478.7 135.23 384.952 120.54 368.133 135.23 413.02 295.433" style="transform-box: fill-box; transform-origin: 50% 50%; fill: rgb(252, 163, 17);" transform="matrix(-0.999945, 0.010501, -0.010501, -0.999945, 0.000051, -0.000018)"/>
  <polygon points="434.209 114.033 445.945 127.204 469.528 132.728 511.547 314.535 434.41 328.724 410.936 143.359 434.209 114.033" style="transform-origin: 466.285px 221.043px; fill: rgb(20, 20, 20);"/>
  <polygon points="366.897 340.851 360.218 318.816 391.131 121.213 407.079 121.213 399.722 314.581 378.069 330.508 366.897 340.851" style="transform-box: fill-box; transform-origin: 50% 50%; fill: rgb(20, 20, 20);" transform="matrix(-0.999945, 0.010501, -0.010501, -0.999945, 0.000015, -0.000001)"/>
  <polygon points="421.612 275.931 415.4 265.382 427.825 141.641 413.327 129.172 399.858 140.677 409.704 264.904 395.355 275.931 400.373 279.294 405.554 273.542 415.918 275.453 420.055 281.215 421.612 275.931" style="transform-box: fill-box; transform-origin: 50% 50%; fill: rgb(20, 20, 20);" transform="matrix(-0.999945, 0.010501, -0.010501, -0.999945, -0.000011, 0.000005)"/>
  <path id="uuid-4155b336-10d9-4b14-826d-07551e167be9-115-165-128-665" d="M 470.446 260.328 C 475.656 253.817 483.549 251.578 488.072 255.316 C 492.594 259.054 492.038 267.364 486.829 273.884 C 484.784 276.517 482.083 278.559 478.945 279.833 L 456.483 307.105 L 442.7 294.982 L 466.307 269.387 C 466.904 266.005 468.321 262.904 470.446 260.337 C 470.446 260.337 470.446 260.337 470.446 260.337 L 470.446 260.328 Z" fill="#f8a8ab" style="transform-box: fill-box; transform-origin: 50% 50%;" transform="matrix(-0.999945, 0.010501, -0.010501, -0.999945, -0.000046, 0.000013)"/>
  <path d="M 504.882 289.875 L 494.621 292.864 C 494.621 292.864 480.718 289.669 476.113 273.593 L 453.64 195.271 L 491.757 133.326 L 512.125 156.223 L 492.94 213.09 L 504.892 289.875 L 504.882 289.875 Z" style="fill: rgb(20, 20, 20); transform-box: fill-box; transform-origin: 50% 50%;" transform="matrix(-0.999945, 0.010501, -0.010501, -0.999945, -0.000065, -0.000001)"/>
  <path d="M 317.83 163.537 C 323.526 164.997 327.024 170.726 325.72 176.459 C 325.584 177.018 325.401 177.564 325.175 178.092 L 352.942 203.843 L 334.087 208.275 L 310.609 183.142 C 306.253 180.863 303.98 175.934 305.075 171.141 C 306.402 165.576 311.989 162.14 317.554 163.467 C 317.647 163.489 317.739 163.512 317.83 163.537 Z" style="fill: rgb(248, 168, 171); transform-box: fill-box; transform-origin: 50% 50%;" transform="matrix(0.995326, 0.096573, -0.096573, 0.995326, 0, 0)"/>
  <path d="M 325.91 153.059 L 272.91 153.059 C 262.903 153.059 256.648 163.892 261.652 172.559 C 263.974 176.581 268.266 179.059 272.91 179.059 L 325.91 179.059 C 335.918 179.059 342.172 168.226 337.169 159.559 C 334.846 155.537 330.555 153.059 325.91 153.059 Z" style="fill: rgb(37, 176, 155);"/>
  <path d="M 336.746 185.417 L 321.739 197.92 L 340.095 228.92 C 342.74 233.43 347.695 235.967 353.192 235.627 C 359.961 235.178 366.127 230.298 368.316 223.659 L 387.243 164.756 C 390.049 156.219 385.914 147.724 377.832 145.408 C 369.87 143.099 360.799 147.955 357.571 156.255 C 357.509 156.41 357.451 156.568 357.395 156.725 C 357.195 157.283 357.024 157.848 356.882 158.418 L 346.889 201.775 L 336.746 185.417 Z" style="fill: rgb(20, 20, 20);"/>
</svg>